<svg width="24" height="25" viewBox="0 0 24 25" fill="none" xmlns="http://www.w3.org/2000/svg">
<g clip-path="url(#clip0_2827_979)">
<path d="M22.3832 6.15605C21.6198 6.49374 20.8102 6.71552 19.9812 6.81405C20.855 6.29148 21.509 5.46906 21.8212 4.50005C21.0012 4.98805 20.1022 5.33005 19.1652 5.51505C18.5359 4.84163 17.7016 4.39501 16.7922 4.24463C15.8828 4.09425 14.9492 4.24854 14.1365 4.6835C13.3238 5.11846 12.6776 5.80973 12.2984 6.64984C11.9191 7.48995 11.828 8.43183 12.0392 9.32905C10.3764 9.2457 8.74958 8.81357 7.26453 8.06071C5.77949 7.30785 4.46937 6.2511 3.41924 4.95905C3.04753 5.5975 2.8522 6.32328 2.85324 7.06205C2.85324 8.51205 3.59124 9.79305 4.71324 10.543C4.04925 10.5221 3.39988 10.3428 2.81924 10.02V10.072C2.81944 11.0377 3.15361 11.9737 3.76509 12.7211C4.37657 13.4686 5.22773 13.9815 6.17424 14.173C5.55786 14.3401 4.91155 14.3647 4.28424 14.245C4.55111 15.0763 5.07125 15.8032 5.77184 16.3242C6.47242 16.8451 7.31837 17.1338 8.19124 17.15C7.32372 17.8314 6.33042 18.335 5.26812 18.6322C4.20583 18.9294 3.09537 19.0143 2.00024 18.882C3.91194 20.1115 6.13734 20.7642 8.41024 20.762C16.1032 20.762 20.3102 14.389 20.3102 8.86205C20.3102 8.68205 20.3052 8.50005 20.2972 8.32205C21.1161 7.73022 21.8228 6.99707 22.3842 6.15705L22.3832 6.15605Z" fill="#607B96"/>
</g>
<defs>
<clipPath id="clip0_2827_979">
<rect width="24" height="24" fill="white" transform="translate(0 0.5)"/>
</clipPath>
</defs>
</svg>
